<mxfile host="app.diagrams.net" modified="2023-08-15T16:08:22.511Z" agent="Mozilla/5.0 (Windows NT 10.0; Win64; x64) AppleWebKit/537.36 (KHTML, like Gecko) Chrome/115.0.0.0 Safari/537.36 Edg/115.0.1901.203" etag="zl7FCoV3x8C22Y9fYjbW" version="21.6.8" type="device">
  <diagram name="Page-1" id="R_bO0IPfm7n-00rHLrhl">
    <mxGraphModel dx="1373" dy="1280" grid="1" gridSize="10" guides="1" tooltips="1" connect="1" arrows="1" fold="1" page="1" pageScale="1" pageWidth="850" pageHeight="1100" math="0" shadow="0">
      <root>
        <mxCell id="0" />
        <mxCell id="1" parent="0" />
        <mxCell id="gxxX7uKxNu8cE0yx-IGL-1" value="" style="shape=image;verticalLabelPosition=bottom;labelBackgroundColor=default;verticalAlign=top;aspect=fixed;imageAspect=0;image=data:image/png,iVBORw0KGgoAAAANSUhEUgAAAL4AAABiCAYAAADuiGnJAAAAAXNSR0IArs4c6QAAAARnQU1BAACxjwv8YQUAAAAJcEhZcwAAHYcAAB2HAY/l8WUAABesSURBVHhe7Z0HeFNHtsf/kizL3YALNoRmjJfeHUw3NhCSTbIk4YUS2BRINgnZR2BfGuXRQjYJSUghQBrLbhotIQ1CL6HYNEMI1Ta9PDDulov6mzO6smVZtmVZFgLN7/vud2dGV9dF/zn3zJkzI5mJAYHAy5BLZ4HAqxDCF3glQvgCr0QIX+CVCOELvBIhfIFXIoQv8EqE8AVeiRC+wCsRwhd4JUL4Aq9ECF/glQjhC7wSIXyBVyKEL/BKhPAFXokQvsArEcIXeCVC+AKvRAhf4JUI4Qu8EiF8gVcihC/wStyyr47+8gWUbP5RqpmRyeWQBQZBHhgMWVAw5MGhUIRHwqdljHTF7cfqnAKMaBSMEIWwJ56OW4SvPZ6Gm8+Mkmq1I2/UGD7RLSCPiIJP02ZQRDWHIro5lG3awadVW+kqz2LpjVw8f/7/kNI5BglB/lKrwFNx205qZam7kPvqszBpNVKLcyjCIqHq3Reqnuy4ewAUrGPcaiyiJw53aYuegX68LPBc3LqFoOZwCnJemgRTWanUUn/oKaCKHwC/gUOh6tVXanUfy7PyMPHcNakGHO8Wi07+Kqkm8FTcvnem9o80ZL/4V5hKS6QW1+HbtRcavbwAypg4qaVh+Tq7ABMyr8D6H5jRvR1i/XylmsBTcfsozLdLT4R/8B/IAgKlFtehPXYYWeNHIG/ByzAW5kutDcOX2fkYbyN6wl8uk0oCT+aWhB98O/dExNJVPJLTEJSsX4sbY4aiLGWn1OJa1uYW4onMq1KtMkEionNbcMs+JWW7jgj/+BvIQxtLLa7FmJ+LnH88hYJFcwEXenM/5RVhTMZlGKW6LcEKhVQSeDK31DwpYzsg4pM1PHzZUKjX/BuF86awnlCdVB2HRP9I+mUYqulHAXK5mBG8TbjlnxNNWEUsY+JvEi61uJ7irb9CM+uZeol/Q74afzlzCfoanh6hws25bfCIT4qL/9O1UERESS2uxWgwQHfxLDQzJjol/u2FxXiIib42IpU+Ukng6XiMifJp1pK7PTRL2xBo8vKhMpSaxW/QS621Q6L/8+mL0DowTojydVz4eXl5OH78uFRzPQUFBcjISJdqAls86tlMoifxUydwNZpCNT9z8U93TPx7ikq46MuMjg2Om9bB4q9dswb/O2smfvvtN6nFtZw5fRr/XLBAqgls8TinlNwdcntcnaxmYu6OSRKwyqRh4n8K0Fcv/lR1KUacclz0RDMHhV9SUoLU1BR079ED+9nZmvPnz/Pz3j27UVhYyMvW/LZrF3Jzc6VaBZcvX8aJEyekmhnLb342MxNqtbnjW3P9+nX+ZPBG3D5z6yjG/DxkTx4D3fkMqaX+RMV3h0JVMauqgQ9Ub6xgflZlwe5noh966gLUhrqNB5a2icazTZtIter56ccfsW37NkydOg0zZ0zHe4veR2RkJNLT0/H6/HkIDg5mfVKPmzdv4oknn8SDD/4FR9LSsHjxYrSNbYu83Dy0bdsWzz73HHQ6LebPn89EfAN6rRYyGTB/wRu4wjrC4sUfIcA/AD5KBfLy8zFp4tMYkpTE3/MGu0an16FYXYwmjRtj1uzZ0m/nHXhsGIJCnOHLVvN4v6ugVGhrVNBD89oTMOl0UguQVlzmlOiJdn6O5egcOXIYCQkJaN26NVq3aYOdO7bzdgMTO1nmhx5+BJ98+hmefOoprFm9GhqNBkZmnyZOnIjp02fg+cmTsXPnDuQzMf/IOpGvUokPP/wQy1esQEzbWBw8cIDfj+41euxYLP54KUaPHo2Vq1by9p9/+hkhocF4/fUFmDtvHtQlxawz/sBf8xY8VvgEzexGLFkJ3w5dpZb6Ibfjiqhkemhfe5yL/4+SMiSddE70hCM5OmfOnMGpU6cxZEgSr1MHSN2/n5ctDBw4kJ+HD78HWvZ7ZaSf4Rb+999/x7SpL2LRe+9Cy6z7zZtZuHrlKqKio+HnZ84InTFzJv4yciQvh4aGsp8zhJfbxcbhZlYWysrKcJr5/zQG+Me0qZg7ZzayWDt1Im/Co4VP0GKV8MXfILdXMhYPnoIdccnQKZTSq44jt3FnrFHJjVDPmoREJvoCNhZwBgVzMVqpav+9UlJSuGiff+5ZPPzQSCz/4gtcYH79ASvxFxaa/W4aC+jYtT6swy5a9B7zx/Mwc9b/4rXXpvPXCZVKxZ4UFb8zRYrSWeciD9bWi5UxP8hoNDLPzgctW7VGIut8dDzMnjD9+g+QrvIOPF74xIkSPwxOWorFg6bgudGfYfCLKdjQ6X7pVcdQBgZIJfsEGzWIuXlFqtWd7gGOLT5J2bcPk55+Gt+v+6H8SOibgP0HKoT/OXNz9u3bi3+v+Bfuan4X2rfvCHVREf7EziT0devW8etI13Fx7ZCWdpgfqamp+PSTZTh3/hx/vTq6dOmCGzey0KNHd3Ts2JENmHfaHfzeyXi88NPzjRj0mwk6vwqLnRvQBNMe/hCv3zMbRpljf4JvSO3ZoFq583k2jqy6yszMRGM2kLzvvj9LLWaShiQjN8ccqVH6+iI4JATfrVmLMk0Znn7mGd7+3POTcfRIGg+B0j1iY2MRFBiIpOShXMhff/UV891/xDDmHo0YcS8C2GstW7Xi7yUCg4IQw8YTCoUC9953H4YNG4ZlS5fh02XL2IA3Gd27d5eu9A48NqpDXCgyoddWI7R+1QtycMYOLFn1DBSmml2UsI5x8GvSSKpV5VxgI8QOfwEmCos4wZexzTE+vPr7O8KpkycxZ+4cfMVErFSKnP6GxGMt/hV17aIndrUbglkP/FOqVYeMWfwgqWyfaV2GOy16IiGoZlfKEbiVbtFCiN4NeKTFv15sQpfNRpTVInprZmyahwkHVki1yqgahyK805+kWlXeiuuHVzsnS7W608JXiUs93bPqS+AaPM7iZ5eZ0G1L3URPvJP8Ci43tp/qEBAeJpWqsrxVd7zWyRxadJYJEfVzcQTux6OEn6thln6jESWqug8yNT4qTHvoAzvuigx+4fbz/ZfE9MaknvfXy8UhRoeFSCXB7YLHuDqFWhM6bTAgX6mAQW2ASWuEUWPkU/AypZwdMsgDFJD51txX562fgUfTvpVqgF9YY4R1aCfVKpjadTjej+0j1Zynvb8Kp7rFSjX3cPXqVezZs5vH5QcPTkTTpk2lV5yH7vmff6/AxYsX+YQWkZDQFy+/8go+//wzbFi/HtHR0fh4yVL+2u2OR1h8Pet6A37U4npGKYr356PseBE06cXQXSyF9kIpNBnFKDupRsmhApQczIfmjBq6axqYWMewZeHQV5AXUGHhA6MipJKZG6pA3N93rEtET8xoXr8FNMuXf8EnsuigUKUjbNq0EatWrsTKb7/Fls2bpVbnoZncv78wGQcPHiwXPWGZzaUJN4KS2u4UbrnwKfnx/pXFOH6sBIZCfUVKYTWYdCboc3SsQ5Sg5HABSo8VQnulDMYycycoUoVgycC/8zIlpPk1Nvvfepmciz12xAtYH+0aC00ztePqEcKkmdlfN2yQauZZV0dy9MnSuxKa9CICAgLwyCOjMGfOXMyb/zpenDqVt9+J3HLhj1tdjM0nzRbFGYzMLdJdKkVpWgF/ShhLDfghdgi2h7RAdkQ0v+a75h3QLfkZ7t6oFa4LFc5sHlGvf+D2bdtgsEmR2LZtq1SqHsrzGT16DD8SpVwcZyGrfuHCBV6mia/Hxo9H127d0LlzZ54xeqdyS4X/9u4yrD7uvOht0WdrUXq0EIGHUrFSFoBXivzQp3USRvUZhZMhlV2e+jIgOACTIuu3SJ5cFqJJkybo0aMnL+/bu48nktUEZXWOHsOEz4677rpLanWOa9cqdoFr2cr1C4A8lVsm/G3n9Hh1s+u2EqzABIPqMi/pQ0JxpZHrF7HTbgpfxdZPcJmZGXxASZAFHzp0KC9TrnxDrcqyh3Unk9ukbTtLdnY2zp07K9U8k1sS1SG/vu17BbiY71z6b3XIWhyFrNvPkIVcR8DBAmhbDoR/zN949qKmWA0t86ld8ed+yUQ/Prx+m2F9smxZucVf9smnCAsLw+N/ncD9/ri4OLz51tv8NXukp5/BV19+ybMs//bsc5WiOnv37sWmjb/yxSz/PeVFpKWlYcuWzTh39ixatmyJzl268Lwcej9RpFbjouTqtGjRgqcy20JPBcuqL0qqswcludFA/fChQygqKpJa2eccG4vHH3+Cu062zJ0zh7l6eoy4917069dfaq3MW2+9iWJ2b1pAY0nltuXddxbylWQDBw3CsGHDpdaauSUW/5tjWpeKXhZ6HfKhiyAf+BkXvalYj8IgPcrydsOoy4PCR4EA9oGGRkUhkLkVvv7+Tg0Q6T3vtmlWb9GTVd+1y7zLW4cOHbgvTcljlg+WVmJZngb2uJl1kw+Cjx49ylOarbnG3kevUfrz9999h4Vvv4WjR47wZYzUvmf3buRk55QPpC2iJ2j5oqXd+rC31NGaY7//jhcmP4+dO3ZUEj1Byx4pWrVsWdUwaH5BPr//xo1mA2AL/R/2p6bya3755ReptTL0f6LOTtfU5YnlduGTwZ2/w0UujswEWfcfIL/vdcgiM6VG9kTJk+5v0qP0yjfmMoOE6+vnh8DGjdGIdYLg8DD4M8uoZG22q7OsUSh9ecd5skUUpjWt/+ZX+/allLsYyclmF4ewuDsEWWmnsOrPa9as5ue+ffvi0UdH88HwyJEPoROzvnyMwOqDBg3m1xB9+/UrHzRbHzEx1X8nQW5ODt5885+8Y1HK9BT2lFn+rxX8yfD2woWIjTXPoWzetImHYK25O/5ufj554gR/0tlivR75/LlzfCmmLYcOHuRn+mzjpfs5gtuFv/WcDhk5LrD2Ci3kg5dC3nEL7wAWTDojTEUVA2Ztzm7oi05LNSvYP8rHVwU/Jvwg9hSgjtAoOhqhTSNZhwhHMHM96AiJbIqQiHCMDA3AF81qX0/rCJbIDa2a6te/4hHfig1a28SYF9mT9XTKLbN6C91/4cJ38NLLr2DM2LFc7EnJyQgJCTGLmtUHDa4Qfr++TPjSoNn6iIlpw1+395Skdb2WTjxj5iwMTkxEo0bmEC+JfsEbC9BKSo9etWolLl+q2J+od3w8P9PiGFpTbMuePXukkpmUlH1SqYJDh8zCb9cujv9djuJ24a9kbk698SuC/J53IWtWeVcBwlRYNSJScvFTbv1rgz5YucKHdQhf+DDrRQe5ScN9gK9dJHqaIDrBHssEid6yZNBCMhMmQRb0gLR21lnGjBnLfeyGgv4WcreIPn362PXjKdP08SeelGrU6bdJJRJru3Kx0uSZNTSDbLHw/QeYV4eR22MNPSVOnTrFy/FSJ3IUtwpfZwDWnqhY2O0UJPrkRZA1sr9aylRQtWMZyq6h9NoaqVY3hihMWNnMdXt7btu6tdySJyVVzQhNTBzC/X1iuwMxfVtMViafwp4NCYnTQpcu1a+L7tq1a7n/feFixZiC6NMngZ/Jcls/4Wj7FYKegg888CAvk8itxxCHDx/mTwvC8vRwFLcKf8tZHYo0Tjy+LZB7k/QhG8zekBoqY9IaYNLYX5BSdv0n6NV121msv9yE75q7xtIT9MFa3Bwa0NKyP1to9pQWoBOHDh2yu7eOo/izezUktNjdQmQN+UIkekvkiRa8W2MRrLX1JmiJJpHAOgZFuWjVGWFpJw4dND8RaR7E4k45iluFv+Oc41v32UPe5xtm6SsmXGwxFdbgRjHRqTPfgVFbc4TCQgIT/c93uU70xNGjR8ojJMOGVx92swx4zR2lwjXwNKwXuStr2UzLR2leiK+z2cSrR48ePCxLHJb8dXJxLkljAYsR6COdLU8CsvRk8YkENnivK24Vfupl54VPYUpZ68p+oC2m0prdKJO+EOr0Bexc8+5h8cy92eBi0RPbtlaImNbIWpLTbI958+ZKVznn7rgLGv9Y0Gpr/t/rpb2LlDa7XZDoSfyExc+nkCsRERHBXR2CLD9x7Nix8qeDJRJUV/+ecJvwyb8/cLUeFr+VuXfXhKm09vsbyq6i8OR0GErNs7u29GKWfpML3RsL9CHt3195cOYIFKem7ElPJKppxe7WWVn23U+CrPONG+bXIyOrukTxd5szZa9cucKvs/yfBkiDWoLyh8gNpHtRB7FEcyiE2q1b3RfKu034f9wwcPE7jbLm7S/Iv6/2GxtsMGpzUHRqOjRZW9gbK0KrXZnoNzeApScoPGlJSBs7dhzPfqzp+J+XXuLXEpad1sqxDivahBhlVoF8O9HHKlS6pro3SO224VXrwfOJ41UjbBb++ONY+SDUEhq1xtpib968iU9cEX0SKrswFreHojs0Q0z07t2bn+uK24R/Iqs+qgcm+D6AAH0NGzaR8OuAyahDyaUvUHBsMkoufgZ1xluIurbMev7Hpfz6qzn9mMJ7Dzz4IA/91XTQFL4lpk+5OzTbW461AG3EaB3VsXnJLpWuqe4NUrttHL9JWBg6durEy+R70wyuLRTj/9fy5VINGJxYNZuU0iTi4sxrotd9/z0/071pUGuNJQJEP4ueDkT83Y5PWlnjNuFn5jgv/Kd6qrDiz81x+k+LEGioRvwOWntbKKVBc3MbdAVHsOrKLjycOg/6WrYqqStnz54tT0Ho179fldh9dSQOTuRnEo/tZI6n8PSkp6USMGfObHzx+ec8zFlaWoqtW7fyBS6Wgeo994zg+UL26B1f2XL3kdwfa3r07Alf34q0cuqIvXvX3b8n3Cf8XOdma0n0n400h+WifZsgo/1HCNJXzak36V0wG8xYd20vRqbMcan4rXPsh9ixeNVBs6CW+LenRndo8DnuscekGrB+/S+Y+uIUPDZuLJZ8vBg5OTm8nRLgxo4bx8v2iLcRMO0uZwsNhHv16iXVzHlO5Pc7g9uEn+GExX+smy8XvfUTNsInBJkdPkKozmZn4ur8UydYf/0AF7/OWL/wq4UCaQkf5bzQIM1RaFaT1tQSOdnZ/EyQG0CDuqioKEREVl5nEB4WzsVAcXOKb9dGYym9gLC9l4Uwdk9yvygtwB6jRv0XFi163+4gk9bpjp8wAR98+FGNKQXUgdq3b8/LNKNb3YQYPTUs3DPiXqlUd9yWlhz1Zj6yih3/UaM6+WLl6EBU933JhYYStD3xAvKV5hQFU4EGhmuu3f9xWGRP/NxvHlTyum9S682Qa6dh7hltge6sRW5o3CJ8+gk+s/McGmwRJPpvHw1EbV8iqDaUIvbkC8jxKYWpWAfDJednOasjMaIrNvZ/Q4j/DsMtrs6NYqPDon+wvdIh0RNBCn+c77QUYTrmDgUwYTZASGbnzWMYsXc6Sg0aqUVwJ+AW4V8vckz1I9opsXZskEOit+Av98X5zksQZQiCLKhh9pwk8Q/d8yrU+oZYKim4FbhF+DmltQv/3jglNvw1CD5O/EYk/sxOH6NjuGu/MM6afTknkbT7ZSH+OwS3CL+grGbhJ8X4YN24mnczrg3ywdO6v4uHWjTcN3sczEvn4i/UVV0tJLi9cIvwa0pFHtDKB79MCIJv3bfLrIKvzAffx8/Cs23uk1pcD4l/yO6XkKfzrm8QudNwj/C19oVPot/4eBD8fFw7Kl3aYwq+jn+1wSIxafmZGLhrmhD/bYxbhK+2Y/ETWphFH6BsgFAMY1yLIUhJfB99mpgnRVzNicKLGLTrH8jWeucXJN/uuEX4ttkEPZspsPmJhhO9hR6NYpGa+AF2DlrIJ6NczfHCCxjALP8NTZ7UIrhdcMsE1twdZZi73RwN6dJUgd8mBSPUr2FFb4909RV8c3kHvr28k5ddRUxgNPYlLkJTlevW5goaFrcIf/a2UszfWcZFv2NiMJr4u1/0thxhfvq+3JM4mn+Olw/nZ0ivOEdsUDPsHLgQzf1dv2WhwPW4RfhzmLVfc1zHLX1YwK0XfXWQ63Ks4Dw/H80/iyxNPgr0xSjQFeOmpnZfvk1gFI4mLUWI0jPzUwQVuEX4OSUmvl9mRKDnit5ReGdgHYEOtb7qHj6U2yPwfNwifIHA03BLVEcg8DSE8AVeiRC+wCsRwhd4JUL4Aq9ECF/glQjhC7wSIXyBVyKEL/BKhPAFXokQvsArEcIXeCVC+AIvBPh/87gclBIWJIQAAAAASUVORK5CYII=;" parent="1" vertex="1">
          <mxGeometry x="10" y="270" width="151.22" height="78" as="geometry" />
        </mxCell>
        <mxCell id="gxxX7uKxNu8cE0yx-IGL-2" value="" style="image;aspect=fixed;html=1;points=[];align=center;fontSize=12;image=img/lib/azure2/storage/Storage_Accounts.svg;" parent="1" vertex="1">
          <mxGeometry x="232.5" y="287" width="65" height="52" as="geometry" />
        </mxCell>
        <mxCell id="gxxX7uKxNu8cE0yx-IGL-3" value="" style="image;aspect=fixed;html=1;points=[];align=center;fontSize=12;image=img/lib/azure2/analytics/Log_Analytics_Workspaces.svg;" parent="1" vertex="1">
          <mxGeometry x="878" y="281.05" width="64" height="64" as="geometry" />
        </mxCell>
        <mxCell id="gxxX7uKxNu8cE0yx-IGL-4" value="" style="image;aspect=fixed;html=1;points=[];align=center;fontSize=12;image=img/lib/azure2/iot/Function_Apps.svg;" parent="1" vertex="1">
          <mxGeometry x="391" y="281" width="68" height="60" as="geometry" />
        </mxCell>
        <mxCell id="gxxX7uKxNu8cE0yx-IGL-12" value="" style="endArrow=classic;html=1;rounded=0;" parent="1" edge="1">
          <mxGeometry width="50" height="50" relative="1" as="geometry">
            <mxPoint x="172" y="309" as="sourcePoint" />
            <mxPoint x="222" y="308.5" as="targetPoint" />
          </mxGeometry>
        </mxCell>
        <mxCell id="gxxX7uKxNu8cE0yx-IGL-15" value="Storage Account&amp;nbsp;" style="text;html=1;align=center;verticalAlign=middle;resizable=0;points=[];autosize=1;strokeColor=none;fillColor=none;" parent="1" vertex="1">
          <mxGeometry x="210" y="339" width="110" height="30" as="geometry" />
        </mxCell>
        <mxCell id="gxxX7uKxNu8cE0yx-IGL-16" value="Function App" style="text;html=1;align=center;verticalAlign=middle;resizable=0;points=[];autosize=1;strokeColor=none;fillColor=none;" parent="1" vertex="1">
          <mxGeometry x="380" y="340.17" width="90" height="30" as="geometry" />
        </mxCell>
        <mxCell id="gxxX7uKxNu8cE0yx-IGL-17" value="Log Analytics &lt;br&gt;workspace" style="text;html=1;align=center;verticalAlign=middle;resizable=0;points=[];autosize=1;strokeColor=none;fillColor=none;" parent="1" vertex="1">
          <mxGeometry x="865" y="348" width="90" height="40" as="geometry" />
        </mxCell>
        <mxCell id="5qC9VUd9-QGCX_WrEH31-3" value="Data collection&amp;nbsp;&lt;br&gt;rule" style="text;html=1;align=center;verticalAlign=middle;resizable=0;points=[];autosize=1;strokeColor=none;fillColor=none;" vertex="1" parent="1">
          <mxGeometry x="695" y="348" width="110" height="40" as="geometry" />
        </mxCell>
        <mxCell id="5qC9VUd9-QGCX_WrEH31-4" value="Generates and uploads logs to Azure Blob Storage" style="rounded=1;whiteSpace=wrap;html=1;" vertex="1" parent="1">
          <mxGeometry x="40" y="210" width="120" height="60" as="geometry" />
        </mxCell>
        <mxCell id="5qC9VUd9-QGCX_WrEH31-5" value="" style="endArrow=classic;html=1;rounded=0;" edge="1" parent="1">
          <mxGeometry width="50" height="50" relative="1" as="geometry">
            <mxPoint x="320" y="311" as="sourcePoint" />
            <mxPoint x="370" y="310.5" as="targetPoint" />
          </mxGeometry>
        </mxCell>
        <mxCell id="5qC9VUd9-QGCX_WrEH31-6" value="Receives Airflow log files" style="rounded=1;whiteSpace=wrap;html=1;" vertex="1" parent="1">
          <mxGeometry x="200" y="210" width="120" height="60" as="geometry" />
        </mxCell>
        <mxCell id="5qC9VUd9-QGCX_WrEH31-7" value="Parses Airflow logs and calls the Logs Ingestion API" style="rounded=1;whiteSpace=wrap;html=1;" vertex="1" parent="1">
          <mxGeometry x="365" y="210" width="120" height="60" as="geometry" />
        </mxCell>
        <mxCell id="5qC9VUd9-QGCX_WrEH31-8" value="" style="image;aspect=fixed;html=1;points=[];align=center;fontSize=12;image=img/lib/azure2/networking/Private_Endpoint.svg;" vertex="1" parent="1">
          <mxGeometry x="550" y="276.66999999999996" width="68" height="62.33" as="geometry" />
        </mxCell>
        <mxCell id="5qC9VUd9-QGCX_WrEH31-10" value="" style="shape=image;verticalLabelPosition=bottom;labelBackgroundColor=default;verticalAlign=top;aspect=fixed;imageAspect=0;image=data:image/png,iVBORw0KGgoAAAANSUhEUgAAAD0AAABDCAYAAAAvSg1YAAAAAXNSR0IArs4c6QAAAARnQU1BAACxjwv8YQUAAAAJcEhZcwAAHYcAAB2HAY/l8WUAAAflSURBVHhe7VtJjBzVGf6qepteZrUdM8aMDTaGS4wJkqVIieIQkUgoHBAkEpdcOAVCFkWIQ5Z7FjgRcohyyCWKhINkApF8ShQFJUHCJAgBNgZ73DMeZuvF3dNbVXXn+19XQ1VXd3WX09OppOcbf1NTb16/93/1L++97rHWIjBh0O3rRGFP9KRgT/SkYCJF39SSVao1Ua63YDXthpAgEdOwkNIQ0TW7pTcCi76QNfDWioFCtYVmyFb4WARYnI3g9JEYlhZ40weBRNfNFn75lwreWTPVz2GD+Hc+peP+u+N46NNT7cYeGDqnRWK10UI2b4VSsEDZaLSwmvfPu0CFzJJRGRgSHGGmNSDvPOFNZ6JCytUJ6VWoNvGLP+8gVxlvBdM4nWbw2xDTJlnMTt4aw5Nn0naLFy7RLMj4wADebQDblt3oQI2h88Y1Q4XQ2MCpdAqO5ExECmY7hn0wRdH3BBH9rzpwtgS8TdFhg1ZvIvl6CTqjzU+48vThGL7lI9qV06t8kHnmQyi/aKk1F0GLJVo0D6IfugqZDM/vdH44qYwbzAFwiVavEU87KI2zWguPTWv45pyGJ8jHZzXcEVW54em/qxRzxM4BHARXTr9aauIVcoVh3gG14Whcww8PRMCLghTRX3O9/puUeeJW5tFt5ChQ4Lq4zELJ4V3QGk0kLtUQW6dxfAD9kKSRpw7H8dQXM3aLFy7RIviVGxZWHNVZtJzgQD9ZjNktbbywbeJP5SbmIhrOZHR8ljuhUWCVc79asvB2zS1MY/sURUc3RLTd2ANSyE7dFse3fUR3hTf3080mmpblIO9b3lmkb4t9a+yzxsp6sWaNhFfrFkpmtw0dO+wQV9c+tG3zg8vTfyiaeLlgIMtQ6kC27YfiOp46EEfMfkSyC30xb+DNCo3hz2meajL0+ChQpzllhrZcnRBPJy8biG1aNNpu7IGOp79z/7Td4oVL9MsUci7fcIkWJKjnZCrCqwb+Q4NK3+fxMqf2peOBLqI/NCm6OZTo735pSNHncg2c267jGkMsbNCZyskrJuJbrYGi711K+IruyukmN+veXNLZzuINOaLO8xX7eI2zmnjzf/doyVUtW8PRD27RMqgUDAc5G/az15OLKXxtXwKPko8fnMJdCR06fyf9oxSf4ESjYIzU1MP0UuyTGjKIHMIXrvB+aaOCl9YrWK59slBHmcOHE1E8fDCJF7Jllc8PHkgiWzVxqWIizQJ230wCJ6fdS9rNYoOp9Vqhjg84vhMS3pmshkSONz6iZJ3+zFIC339g1m7xwuPp7pCVZUnCXpaLTpi1+zEqmAoRti/wyRxPxkbCQ4kIppi0ThsUxa6OHQM4KLxdnj77URln18pYrvJ8aSPKcn14Koonjszi4o6hBl2icec3d/Bmsa72CdMRHRkJiRFAFo4i1+kqRTqhm1wWV+npPP3koynF5fW+Iwk8/eU5u8ULt2gKfvF6ySVakKaoexjCzqX4UtnARoNeH2q3+59D64gu6AOqN0UfTeCZr8zbLV64w5v6VYjY4dth2bTwRqFKz9YU5eeNusFKz3Dr6rtrZGirQtvd3kXlwwF+cIuWLyW8kz9tirgdCi80TMUbhgXj4xwbDz+u3LTRmb/96AeX6Iyuq92XelIho/Iy97/Ko7zvT9vbPnDl9MVyA+fXy8zXupqrGw1OenG9oa7jhmZoSK1p3I66/ORBikvW6duT+MGD++wWL1yiBdssTgWGb3eIyF2OB4yfn89hW04E4wQn1yzu+4d47y7FUD19NIkffXW/3eKFR3Q/SK+Nkonv/W4dazfcG4cwIa08ncKPH+ov2j9WekAWKWfBCBvl4CcF2Q+BRXNcDh5++iGQaBlLlq8ws71d9Vcdak9r3AKnediZz/Ag2+P3PSk2tk3ti+A5rQbvnU+jpk7R85kEjh2cwXxahPfu56R8eCdruR+CieZYUuyd277dpMwV5YZ/gcKP3zKNOQpnU8++HcprBi1IAXNaquMYyfmoQwnfPzOFE4szbeHcNfbsb9N9PvMi0Dp9vWjg6d9vYp3r9TgQj+pYnEvhjk+138NWNuQreP+jG8jtNFQodyPNo+Xnjqfx00dusVu8CCT6as7Ar16rIj+mz6flD2ZSLGQzPL87kd3eweX1EnLcLptdwkX05+9M42ePLNotXgwtWsa+vGngj+/yqFm3G/+LuLa1g/fWxON1ZVsHGVv0s4/2Fx24eocFi/NJ5ndMVXhPTg/w4/+kaMnllXwV68U6qnI44n2HbdF2xz4ILFoeYvfauFvkP0Un5DbLYnZhOYdNhrac95yUajPy6v2N32SxUhxP9U7FIjh2IINTS+33u8SG5VwFr1/ZQqlmeB6IIJPQcebENJ7/+iG7xYtAnpY3VapmExWeucdBCV3DavtNqvQVVu2/f7iFYtXkvazVvTnS8JaxOuEzDnbCtUGFV7Yr+MfVHAr0sEkXd/d1coDm4DktT7FX/u0GDU5WrJm4vFXGhWs5tTypvXWPvp9QhPvLvgnR9sBjoHj4erGGt1aL2Ci11+OBpGCa6ItQh3fb0wa3ve1PUoYijRyg+SY8TXYvE2Gj2OiHQKJl9xN20WLf6DzN9Uo+5Z9NRdSrDCZOGKnTvH0ZfvPB0JuTDp776zZ++88id0PhextY/hfDsYU4nvnCfjxw55B/RzYpCFzI/h+wJ3pSsCd6UrAnejIA/BtrdDgvz935LgAAAABJRU5ErkJggg==;" vertex="1" parent="1">
          <mxGeometry x="719" y="276.95" width="62" height="68.1" as="geometry" />
        </mxCell>
        <mxCell id="5qC9VUd9-QGCX_WrEH31-11" value="" style="endArrow=classic;html=1;rounded=0;" edge="1" parent="1">
          <mxGeometry width="50" height="50" relative="1" as="geometry">
            <mxPoint x="480" y="313.05" as="sourcePoint" />
            <mxPoint x="530" y="312.55" as="targetPoint" />
          </mxGeometry>
        </mxCell>
        <mxCell id="5qC9VUd9-QGCX_WrEH31-12" value="Stores Airflow logs" style="rounded=1;whiteSpace=wrap;html=1;" vertex="1" parent="1">
          <mxGeometry x="850" y="210" width="120" height="60" as="geometry" />
        </mxCell>
        <mxCell id="5qC9VUd9-QGCX_WrEH31-13" value="Receives data from Log Analytics API and data collection rule to be used&amp;nbsp;" style="rounded=1;whiteSpace=wrap;html=1;" vertex="1" parent="1">
          <mxGeometry x="530" y="210" width="120" height="60" as="geometry" />
        </mxCell>
        <mxCell id="5qC9VUd9-QGCX_WrEH31-14" value="Data collection&lt;br&gt;endpoint" style="text;html=1;align=center;verticalAlign=middle;resizable=0;points=[];autosize=1;strokeColor=none;fillColor=none;" vertex="1" parent="1">
          <mxGeometry x="540" y="348" width="100" height="40" as="geometry" />
        </mxCell>
        <mxCell id="5qC9VUd9-QGCX_WrEH31-15" value="Transforms the data, and specifies Log Analytics workspace and table" style="rounded=1;whiteSpace=wrap;html=1;" vertex="1" parent="1">
          <mxGeometry x="690" y="210" width="120" height="60" as="geometry" />
        </mxCell>
        <mxCell id="5qC9VUd9-QGCX_WrEH31-16" value="" style="endArrow=classic;html=1;rounded=0;" edge="1" parent="1">
          <mxGeometry width="50" height="50" relative="1" as="geometry">
            <mxPoint x="640" y="311" as="sourcePoint" />
            <mxPoint x="690" y="310.5" as="targetPoint" />
          </mxGeometry>
        </mxCell>
        <mxCell id="5qC9VUd9-QGCX_WrEH31-17" value="" style="endArrow=classic;html=1;rounded=0;" edge="1" parent="1">
          <mxGeometry width="50" height="50" relative="1" as="geometry">
            <mxPoint x="805" y="313" as="sourcePoint" />
            <mxPoint x="855" y="312.5" as="targetPoint" />
          </mxGeometry>
        </mxCell>
      </root>
    </mxGraphModel>
  </diagram>
</mxfile>
